<svg width="58" height="58" viewBox="0 0 58 58" fill="none" xmlns="http://www.w3.org/2000/svg">
<g clip-path="url(#clip0_503_7)">
<path fill-rule="evenodd" clip-rule="evenodd" d="M21.1504 32.6657C19.778 33.4142 18.1916 33.6393 16.4107 33.1183C10.9017 31.5062 8.67316 27.1922 8.37227 22.0782C7.93317 14.611 11.6662 5.4216 15.0029 0.854419C15.1607 0.637924 15.464 0.591434 15.6793 0.749218C15.8958 0.907001 15.9435 1.21034 15.7857 1.42684C12.5468 5.85948 8.91414 14.7749 9.33979 22.022C9.61622 26.7176 11.6234 30.7074 16.6835 32.1874C18.1892 32.629 19.5273 32.4345 20.6893 31.8046C20.2893 31.0389 19.9162 30.272 19.5713 29.5051C18.6197 27.3879 17.1972 21.5095 17.7281 17.1869C18.1097 14.0863 19.493 11.788 22.5166 11.8687C24.1972 11.914 25.413 12.961 26.1566 14.6269C27.1804 16.9166 27.2954 20.4246 26.5749 23.7857C25.9756 26.5843 24.8014 29.2764 23.1355 31.0829C22.7686 31.4792 22.3796 31.8352 21.9674 32.141C27.7161 42.655 38.3953 52.4866 49.362 56.633C49.6115 56.7284 49.7387 57.0073 49.6432 57.258C49.5491 57.5087 49.269 57.6347 49.0194 57.5406C37.8742 53.3256 27.0178 43.351 21.1504 32.6657ZM21.5038 31.2713C21.1295 30.5509 20.7797 29.8292 20.4556 29.1076C19.5444 27.0784 18.1818 21.4471 18.6906 17.3056C19.0025 14.7639 20.0129 12.7714 22.4909 12.8375C23.7923 12.8729 24.695 13.7328 25.2723 15.022C25.9059 16.4408 26.1481 18.3623 26.0466 20.4111C25.8924 23.5215 24.9421 26.9243 23.2884 29.3326C22.7649 30.0959 22.1692 30.7576 21.5038 31.2713Z" fill="#C0BDED"/>
<path fill-rule="evenodd" clip-rule="evenodd" d="M40.6962 40.7672C41.6723 46.467 45.3979 52.5362 49.4135 56.7389C49.5982 56.9321 49.5909 57.2392 49.3976 57.4239C49.2043 57.6086 48.8973 57.6024 48.7126 57.4092C44.5711 53.0756 40.7476 46.807 39.7409 40.9311C39.6957 40.6681 39.8731 40.4174 40.1373 40.3721C40.4002 40.3269 40.651 40.5042 40.6962 40.7672Z" fill="#C0BDED"/>
<path fill-rule="evenodd" clip-rule="evenodd" d="M48.6503 57.5114C44.4696 55.1238 38.0567 54.7936 33.3819 56.0032C33.1226 56.0705 32.8571 55.9152 32.7911 55.6559C32.7238 55.3966 32.8791 55.1324 33.1384 55.0651C38.0359 53.7979 44.7509 54.1685 49.1309 56.6698C49.3633 56.8019 49.4441 57.0992 49.312 57.3316C49.1787 57.564 48.8826 57.6447 48.6503 57.5114Z" fill="#C0BDED"/>
</g>
<defs>
<clipPath id="clip0_503_7">
<rect width="57.0046" height="57.0046" fill="white" transform="matrix(1 0 0 -1 0.571289 57.5757)"/>
</clipPath>
</defs>
</svg>
