<svg xmlns="http://www.w3.org/2000/svg" xmlns:xlink="http://www.w3.org/1999/xlink" width="325" height="356" fill="none" xmlns:v="https://vecta.io/nano"><style><![CDATA[.B{fill-opacity:.2}]]></style><g fill="#c0bded" class="B"><path d="M10.492 5.766c0 2.883-2.34 5.221-5.226 5.221S.041 8.649.041 5.766 2.38.545 5.266.545s5.226 2.337 5.226 5.221zm31.355 0c0 2.883-2.34 5.221-5.226 5.221s-5.226-2.337-5.226-5.221S33.735.545 36.621.545s5.226 2.337 5.226 5.221zm31.355 0c0 2.883-2.34 5.221-5.226 5.221S62.75 8.649 62.75 5.766 65.09.545 67.976.545s5.226 2.337 5.226 5.221zm31.355 0c0 2.883-2.34 5.221-5.226 5.221s-5.226-2.337-5.226-5.221S96.445.545 99.331.545s5.226 2.337 5.226 5.221zm31.354 0c0 2.883-2.339 5.221-5.225 5.221s-5.226-2.337-5.226-5.221S127.8.545 130.686.545s5.225 2.337 5.225 5.221zm31.355 0c0 2.883-2.339 5.221-5.226 5.221s-5.225-2.337-5.225-5.221S159.154.545 162.04.545s5.226 2.337 5.226 5.221z"/><use xlink:href="#B"/><use xlink:href="#C"/><use xlink:href="#C" x="31.355"/><use xlink:href="#C" x="62.71"/><use xlink:href="#D"/><path d="M10.492 37.09c0 2.883-2.34 5.221-5.226 5.221S.041 39.973.041 37.09s2.34-5.221 5.226-5.221 5.226 2.337 5.226 5.221z"/><use xlink:href="#C" x="-188.129" y="31.324"/><use xlink:href="#C" x="-156.774" y="31.324"/><use xlink:href="#C" x="-125.419" y="31.324"/><path d="M135.911 37.09c0 2.883-2.339 5.221-5.225 5.221s-5.226-2.337-5.226-5.221 2.34-5.221 5.226-5.221 5.225 2.337 5.225 5.221zm31.355 0c0 2.883-2.339 5.221-5.226 5.221s-5.225-2.337-5.225-5.221 2.339-5.221 5.225-5.221 5.226 2.337 5.226 5.221z"/><use xlink:href="#B" y="31.324"/><use xlink:href="#C" y="31.324"/><use xlink:href="#C" x="31.355" y="31.324"/><use xlink:href="#C" x="62.71" y="31.324"/><use xlink:href="#D" y="31.324"/><path d="M10.492 68.413c0 2.883-2.34 5.221-5.226 5.221S.041 71.296.041 68.413s2.34-5.22 5.226-5.22 5.226 2.337 5.226 5.22z"/><use xlink:href="#E"/><use xlink:href="#E" x="31.355"/><use xlink:href="#E" x="62.71"/><path d="M135.911 68.413c0 2.883-2.339 5.221-5.225 5.221s-5.226-2.337-5.226-5.221 2.34-5.22 5.226-5.22 5.225 2.337 5.225 5.22zm31.355 0c0 2.883-2.339 5.221-5.226 5.221s-5.225-2.337-5.225-5.221 2.339-5.22 5.225-5.22 5.226 2.337 5.226 5.22zm31.355 0c0 2.883-2.34 5.221-5.226 5.221s-5.225-2.337-5.225-5.221 2.339-5.22 5.225-5.22 5.226 2.337 5.226 5.22z"/><use xlink:href="#E" x="188.129"/><use xlink:href="#E" x="219.484"/><use xlink:href="#E" x="250.839"/><path d="M324.04 68.413c0 2.883-2.339 5.221-5.225 5.221s-5.226-2.337-5.226-5.221 2.339-5.22 5.226-5.22 5.225 2.337 5.225 5.22zM10.492 99.737c0 2.883-2.34 5.22-5.226 5.22S.041 102.62.041 99.737s2.34-5.221 5.226-5.221 5.226 2.337 5.226 5.221z"/><use xlink:href="#F"/><use xlink:href="#F" x="31.355"/><use xlink:href="#F" x="62.71"/><use xlink:href="#G"/><use xlink:href="#H"/><use xlink:href="#I"/><use xlink:href="#F" x="188.129"/><use xlink:href="#F" x="219.484"/><use xlink:href="#F" x="250.839"/><use xlink:href="#J"/><path d="M10.492 131.06c0 2.883-2.34 5.221-5.226 5.221S.041 133.943.041 131.06s2.34-5.22 5.226-5.22 5.226 2.337 5.226 5.22z"/><use xlink:href="#K"/><use xlink:href="#K" x="31.355"/><use xlink:href="#K" x="62.71"/><use xlink:href="#L"/><use xlink:href="#M"/><use xlink:href="#N"/><use xlink:href="#K" x="188.129"/><use xlink:href="#K" x="219.484"/><use xlink:href="#K" x="250.839"/><use xlink:href="#O"/><use xlink:href="#F" x="-31.355" y="62.647"/><use xlink:href="#F" y="62.647"/><use xlink:href="#F" x="31.355" y="62.647"/><use xlink:href="#F" x="62.71" y="62.647"/><use xlink:href="#G" y="62.647"/><use xlink:href="#H" y="62.647"/><use xlink:href="#I" y="62.647"/><use xlink:href="#F" x="188.129" y="62.647"/><use xlink:href="#F" x="219.484" y="62.647"/><use xlink:href="#F" x="250.839" y="62.647"/><use xlink:href="#J" y="62.647"/><path d="M10.492 193.707c0 2.883-2.34 5.221-5.226 5.221S.041 196.59.041 193.707s2.34-5.22 5.226-5.22 5.226 2.337 5.226 5.22z"/><use xlink:href="#K" y="62.647"/><use xlink:href="#K" x="31.355" y="62.647"/><use xlink:href="#K" x="62.71" y="62.647"/><use xlink:href="#L" y="62.647"/><use xlink:href="#M" y="62.647"/><use xlink:href="#N" y="62.647"/><use xlink:href="#K" x="188.129" y="62.647"/><use xlink:href="#K" x="219.484" y="62.647"/><use xlink:href="#K" x="250.839" y="62.647"/><use xlink:href="#O" y="62.647"/><use xlink:href="#F" x="-31.355" y="125.294"/><use xlink:href="#F" y="125.294"/><use xlink:href="#F" x="31.355" y="125.294"/><use xlink:href="#F" x="62.71" y="125.294"/><use xlink:href="#G" y="125.294"/><use xlink:href="#H" y="125.294"/><use xlink:href="#I" y="125.294"/><use xlink:href="#F" x="188.129" y="125.294"/><use xlink:href="#F" x="219.484" y="125.294"/><use xlink:href="#F" x="250.839" y="125.294"/><use xlink:href="#J" y="125.294"/><use xlink:href="#K" x="-31.355" y="125.294"/><use xlink:href="#K" y="125.294"/><use xlink:href="#K" x="31.355" y="125.294"/><use xlink:href="#K" x="62.71" y="125.294"/><use xlink:href="#L" y="125.294"/><use xlink:href="#M" y="125.294"/><use xlink:href="#N" y="125.294"/><use xlink:href="#K" x="188.129" y="125.294"/><use xlink:href="#K" x="219.484" y="125.294"/><use xlink:href="#K" x="250.839" y="125.294"/><use xlink:href="#O" y="125.294"/><use xlink:href="#F" x="-31.355" y="187.941"/><use xlink:href="#F" y="187.941"/><use xlink:href="#F" x="31.355" y="187.941"/><use xlink:href="#F" x="62.71" y="187.941"/><use xlink:href="#G" y="187.941"/><use xlink:href="#H" y="187.941"/><use xlink:href="#I" y="187.941"/><use xlink:href="#F" x="188.129" y="187.941"/><use xlink:href="#F" x="219.484" y="187.941"/><use xlink:href="#F" x="250.839" y="187.941"/><use xlink:href="#J" y="187.941"/><use xlink:href="#K" x="-31.355" y="187.941"/><use xlink:href="#K" y="187.941"/><use xlink:href="#K" x="31.355" y="187.941"/><use xlink:href="#K" x="62.71" y="187.941"/><use xlink:href="#L" y="187.941"/><use xlink:href="#M" y="187.941"/><use xlink:href="#N" y="187.941"/><use xlink:href="#K" x="188.129" y="187.941"/><use xlink:href="#K" x="219.484" y="187.941"/><use xlink:href="#K" x="250.839" y="187.941"/><use xlink:href="#O" y="187.941"/><use xlink:href="#P"/><use xlink:href="#P" x="31.355"/><use xlink:href="#P" x="62.71"/><use xlink:href="#P" x="94.065"/><path d="M135.911 350.325c0 2.883-2.339 5.22-5.225 5.22s-5.226-2.337-5.226-5.22 2.34-5.221 5.226-5.221 5.225 2.338 5.225 5.221zm31.355 0c0 2.883-2.339 5.22-5.226 5.22s-5.225-2.337-5.225-5.22 2.339-5.221 5.225-5.221 5.226 2.338 5.226 5.221zm31.355 0c0 2.883-2.34 5.22-5.226 5.22s-5.225-2.337-5.225-5.22 2.339-5.221 5.225-5.221 5.226 2.338 5.226 5.221z"/><use xlink:href="#P" x="219.484"/><use xlink:href="#P" x="250.839"/><use xlink:href="#P" x="282.194"/><path d="M324.04 350.325c0 2.883-2.339 5.22-5.225 5.22s-5.226-2.337-5.226-5.22 2.339-5.221 5.226-5.221 5.225 2.338 5.225 5.221z"/></g><defs ><path id="B" d="M198.621 5.766c0 2.883-2.34 5.221-5.226 5.221s-5.225-2.337-5.225-5.221 2.339-5.221 5.225-5.221 5.226 2.337 5.226 5.221z"/><path id="C" d="M229.976 5.766c0 2.883-2.34 5.221-5.226 5.221s-5.226-2.337-5.226-5.221 2.34-5.221 5.226-5.221 5.226 2.337 5.226 5.221z"/><path id="D" d="M324.04 5.766c0 2.883-2.339 5.221-5.225 5.221s-5.226-2.337-5.226-5.221 2.339-5.221 5.226-5.221 5.225 2.337 5.225 5.221z"/><path id="E" d="M41.847 68.413c0 2.883-2.34 5.221-5.226 5.221s-5.226-2.337-5.226-5.221 2.34-5.22 5.226-5.22 5.226 2.337 5.226 5.22z"/><path id="F" d="M41.847 99.737c0 2.883-2.34 5.22-5.226 5.22s-5.226-2.337-5.226-5.22 2.34-5.221 5.226-5.221 5.226 2.337 5.226 5.221z"/><path id="G" d="M135.911 99.737c0 2.883-2.339 5.22-5.225 5.22s-5.226-2.337-5.226-5.22 2.34-5.221 5.226-5.221 5.225 2.337 5.225 5.221z"/><path id="H" d="M167.266 99.737c0 2.883-2.339 5.22-5.226 5.22s-5.225-2.337-5.225-5.22 2.339-5.221 5.225-5.221 5.226 2.337 5.226 5.221z"/><path id="I" d="M198.621 99.737c0 2.883-2.34 5.22-5.226 5.22s-5.225-2.337-5.225-5.22 2.339-5.221 5.225-5.221 5.226 2.337 5.226 5.221z"/><path id="J" d="M324.04 99.737c0 2.883-2.339 5.22-5.225 5.22s-5.226-2.337-5.226-5.22 2.339-5.221 5.226-5.221 5.225 2.337 5.225 5.221z"/><path id="K" d="M41.847 131.06c0 2.883-2.34 5.221-5.226 5.221s-5.226-2.338-5.226-5.221 2.34-5.22 5.226-5.22 5.226 2.337 5.226 5.22z"/><path id="L" d="M135.911 131.06c0 2.883-2.339 5.221-5.225 5.221s-5.226-2.338-5.226-5.221 2.34-5.22 5.226-5.22 5.225 2.337 5.225 5.22z"/><path id="M" d="M167.266 131.06c0 2.883-2.339 5.221-5.226 5.221s-5.225-2.338-5.225-5.221 2.339-5.22 5.225-5.22 5.226 2.337 5.226 5.22z"/><path id="N" d="M198.621 131.06c0 2.883-2.34 5.221-5.226 5.221s-5.225-2.338-5.225-5.221 2.339-5.22 5.225-5.22 5.226 2.337 5.226 5.22z"/><path id="O" d="M324.04 131.06c0 2.883-2.339 5.221-5.225 5.221s-5.226-2.338-5.226-5.221 2.339-5.22 5.226-5.22 5.225 2.337 5.225 5.22z"/><path id="P" d="M10.492 350.325c0 2.883-2.34 5.22-5.226 5.22s-5.226-2.337-5.226-5.22 2.34-5.221 5.226-5.221 5.226 2.338 5.226 5.221z"/></defs></svg>