<?xml version="1.0" encoding="UTF-8"?> <svg xmlns="http://www.w3.org/2000/svg" width="100" height="100" viewBox="0 0 100 100" fill="none"><path d="M50 0C22.4178 0 0 22.4178 0 50C0 77.5822 22.4178 100 50 100C77.5822 100 100 77.5822 100 50C100 22.4178 77.5822 0 50 0ZM50 94.9531C25.2347 94.9531 5.04695 74.7653 5.04695 50C5.04695 25.2347 25.2347 5.04695 50 5.04695C74.7653 5.04695 94.9531 25.2347 94.9531 50C94.9531 74.7653 74.7653 94.9531 50 94.9531Z" fill="#FF0000"></path><path d="M53.5211 49.7652L68.1925 35.0939C69.1314 34.1549 69.1314 32.5117 68.1925 31.5728C67.2535 30.6338 65.6103 30.6338 64.6713 31.5728L50 46.2441L35.3286 31.5728C34.3897 30.6338 32.7465 30.6338 31.8075 31.5728C30.8685 32.5117 30.8685 34.1549 31.8075 35.0939L46.4789 49.7652L31.8075 64.3192C30.8685 65.2582 30.8685 66.9014 31.8075 67.8404C32.277 68.3098 32.9812 68.5446 33.5681 68.5446C34.1549 68.5446 34.8591 68.3098 35.3286 67.8404L50 53.169L64.6713 67.8404C65.1408 68.3098 65.8451 68.5446 66.4319 68.5446C67.0188 68.5446 67.723 68.3098 68.1925 67.8404C69.1314 66.9014 69.1314 65.2582 68.1925 64.3192L53.5211 49.7652Z" fill="#FF0000"></path></svg> 