<svg width="166" height="94" viewBox="0 0 166 94" fill="none" xmlns="http://www.w3.org/2000/svg">
<path fill-rule="evenodd" clip-rule="evenodd" d="M121.071 17.3073C128.806 18.0921 134.8 20.9191 140.774 24.0405C160.365 34.289 166.165 48.4701 151.375 60.9728C128.381 80.3573 77.2665 90.5221 38.8139 81.4926C30.2975 79.4996 18.7217 77.4585 10.6492 70.0699C3.13969 63.1997 3.99588 55.7164 8.12606 49.0218C12.3348 42.156 19.9493 36.0985 25.9423 32.2816C52.1416 15.6319 103.203 2.40509 147.709 14.3727C148.625 14.6073 149.573 14.3802 149.875 13.8688C150.177 13.3574 149.753 12.7567 148.903 12.5266C103.09 0.209469 50.4133 13.684 23.4476 30.8187C15.9904 35.5793 6.10112 43.7051 2.81594 52.5983C0.593067 58.6782 1.40819 65.1091 7.91325 71.1086C16.4848 78.9772 28.7763 81.2604 37.8164 83.3808C77.5134 92.7056 130.378 82.2615 154.083 62.2381C170.004 48.8017 163.879 33.5531 142.81 22.5366C136.389 19.1541 129.806 16.1588 121.41 15.3074C120.484 15.2139 119.66 15.5863 119.621 16.142C119.516 16.6931 120.211 17.2184 121.071 17.3073Z" fill="#C0BDED" fill-opacity="0.2"/>
</svg>
