<svg width="22" height="19" viewBox="0 0 22 19" fill="none" xmlns="http://www.w3.org/2000/svg">
<path d="M0.6875 4.07143H18.5625C18.9423 4.07143 19.25 3.76777 19.25 3.39286V0.678571C19.25 0.303661 18.9423 0 18.5625 0H0.6875C0.307656 0 0 0.303661 0 0.678571V3.39286C0 3.76777 0.307656 4.07143 0.6875 4.07143ZM21.3125 7.46429H3.4375C3.05766 7.46429 2.75 7.76795 2.75 8.14286V10.8571C2.75 11.2321 3.05766 11.5357 3.4375 11.5357H21.3125C21.6923 11.5357 22 11.2321 22 10.8571V8.14286C22 7.76795 21.6923 7.46429 21.3125 7.46429ZM18.5625 14.9286H0.6875C0.307656 14.9286 0 15.2322 0 15.6071V18.3214C0 18.6963 0.307656 19 0.6875 19H18.5625C18.9423 19 19.25 18.6963 19.25 18.3214V15.6071C19.25 15.2322 18.9423 14.9286 18.5625 14.9286Z" fill="white"/>
</svg>
