<svg width="23" height="23" viewBox="0 0 23 23" fill="none" xmlns="http://www.w3.org/2000/svg">
<path fill-rule="evenodd" clip-rule="evenodd" d="M10.2373 8.64133C8.10227 6.88633 6.37229 4.79633 5.07229 2.36133C4.81229 1.87633 4.20731 1.69133 3.71731 1.95133C3.23231 2.21133 3.04728 2.81634 3.30728 3.30634C4.73728 5.97134 6.62731 8.26134 8.96731 10.1863C9.39231 10.5363 10.0273 10.4763 10.3773 10.0513C10.7273 9.62134 10.6623 8.99133 10.2373 8.64133Z" fill="#C0BDED"/>
<path fill-rule="evenodd" clip-rule="evenodd" d="M9.0987 1.80611C9.2087 3.82611 9.30872 5.84611 9.43372 7.86611C9.46872 8.41611 9.94371 8.8361 10.4937 8.8011C11.0437 8.7661 11.4637 8.29111 11.4287 7.74111C11.3037 5.72611 11.2037 3.71112 11.0937 1.69112C11.0637 1.14262 10.5887 0.720114 10.0387 0.751114C9.4887 0.782114 9.0637 1.25461 9.0987 1.80611Z" fill="#C0BDED"/>
<path fill-rule="evenodd" clip-rule="evenodd" d="M16.5217 2.21629C15.2417 4.14629 13.7917 5.92627 12.3317 7.72627C11.9817 8.15627 12.0467 8.7863 12.4767 9.1313C12.9067 9.4813 13.5367 9.41628 13.8817 8.98628C15.3817 7.14128 16.8717 5.30627 18.1917 3.32127C18.4967 2.86127 18.3667 2.24129 17.9067 1.93629C17.4517 1.63129 16.8267 1.75629 16.5217 2.21629Z" fill="#C0BDED"/>
<path fill-rule="evenodd" clip-rule="evenodd" d="M21.48 9.39112C18.01 9.54612 14.325 9.55112 10.855 9.33112C10.305 9.30112 9.83001 9.71612 9.79501 10.2711C9.76001 10.8211 10.18 11.2961 10.73 11.3311C14.27 11.5511 18.03 11.5461 21.57 11.3911C22.12 11.3661 22.55 10.8961 22.525 10.3461C22.5 9.79613 22.03 9.36612 21.48 9.39112Z" fill="#C0BDED"/>
<path fill-rule="evenodd" clip-rule="evenodd" d="M8.9646 10.0262C11.1046 12.6462 13.3196 15.2162 15.3046 17.9562C15.6296 18.4012 16.2546 18.5012 16.7046 18.1762C17.1496 17.8512 17.2496 17.2262 16.9246 16.7812C14.9146 14.0112 12.6746 11.4112 10.5096 8.76119C10.1596 8.33619 9.52961 8.27121 9.10461 8.62121C8.67461 8.97121 8.6146 9.60121 8.9646 10.0262Z" fill="#C0BDED"/>
<path fill-rule="evenodd" clip-rule="evenodd" d="M9.6127 10.7864C10.1727 13.5164 10.3277 16.1264 10.3677 18.8914C10.3727 19.4414 10.8277 19.8814 11.3777 19.8764C11.9327 19.8664 12.3727 19.4164 12.3627 18.8614C12.3227 15.9664 12.1577 13.2414 11.5727 10.3814C11.4577 9.84138 10.9327 9.49135 10.3877 9.60635C9.84772 9.71635 9.4977 10.2464 9.6127 10.7864Z" fill="#C0BDED"/>
<path fill-rule="evenodd" clip-rule="evenodd" d="M9.70298 10.5663C8.08298 13.8063 7.24797 17.4063 5.51297 20.5763C5.24797 21.0563 5.42794 21.6663 5.91294 21.9313C6.39794 22.1963 7.00298 22.0162 7.26798 21.5362C9.01298 18.3462 9.85795 14.7263 11.493 11.4613C11.738 10.9663 11.5379 10.3663 11.0479 10.1163C10.5529 9.87125 9.95298 10.0713 9.70298 10.5663Z" fill="#C0BDED"/>
<path fill-rule="evenodd" clip-rule="evenodd" d="M10.5945 9.83096C7.36954 10.401 4.14954 10.661 0.904537 11.046C0.354537 11.111 -0.0354634 11.606 0.0295366 12.156C0.0945366 12.706 0.589583 13.096 1.13958 13.031C4.41958 12.646 7.67957 12.376 10.9446 11.801C11.4846 11.701 11.8496 11.181 11.7546 10.641C11.6546 10.096 11.1395 9.73096 10.5945 9.83096Z" fill="#C0BDED"/>
<path fill-rule="evenodd" clip-rule="evenodd" d="M12.8387 8.31151C12.1737 8.28151 11.5437 8.2365 10.8937 8.1415C10.3437 8.0615 9.83868 8.4415 9.75868 8.9865C9.67868 9.5315 10.0587 10.0415 10.6037 10.1215C11.3237 10.2265 12.0187 10.2765 12.7487 10.3065C13.2987 10.3315 13.7687 9.90649 13.7887 9.35149C13.8137 8.80149 13.3887 8.33651 12.8387 8.31151Z" fill="#C0BDED"/>
</svg>
