<svg width="37" height="40" viewBox="0 0 37 40" fill="none" xmlns="http://www.w3.org/2000/svg">
<path fill-rule="evenodd" clip-rule="evenodd" d="M13.4625 35.8449C10.1668 35.1398 6.7463 34.8917 3.42968 34.6756C2.71548 34.6314 2.08723 35.16 2.07868 35.8511C2.01952 36.5458 2.56465 37.1445 3.22822 37.1917C6.44262 37.3984 9.75971 37.6272 12.9014 38.3078C13.5712 38.4561 14.2566 38.0245 14.4183 37.3442C14.58 36.6645 14.1323 35.9937 13.4625 35.8449Z" fill="#C0BDED"/>
<path fill-rule="evenodd" clip-rule="evenodd" d="M22.5013 22.4384C16.9629 17.4712 10.8079 13.2247 5.36208 8.10952C4.87538 7.63045 4.06361 7.65284 3.58623 8.15705C3.10889 8.66177 3.10718 9.46147 3.6445 9.93745C9.09129 15.0683 15.2472 19.3298 20.7866 24.3126C21.3232 24.7765 22.1335 24.734 22.6101 24.2162C23.036 23.702 23.0379 22.9023 22.5013 22.4384Z" fill="#C0BDED"/>
<path fill-rule="evenodd" clip-rule="evenodd" d="M31.0306 1.50824C31.3675 4.5245 31.7042 7.54078 32.0411 10.5575C32.0835 11.2506 32.7241 11.7485 33.4309 11.6714C34.1377 11.5939 34.6076 10.973 34.5652 10.2795C34.228 7.2582 33.891 4.23739 33.5538 1.2166C33.4608 0.526677 32.8206 0.0322609 32.114 0.113335C31.4581 0.191312 30.9376 0.818815 31.0306 1.50824Z" fill="#C0BDED"/>
</svg>
