<svg width="272" height="27" viewBox="0 0 272 27" fill="none" xmlns="http://www.w3.org/2000/svg">
<path fill-rule="evenodd" clip-rule="evenodd" d="M90.9483 4.00131C61.1964 2.84577 31.2737 3.54658 2.30302 8.94509C1.78614 9.04098 1.56708 9.24984 1.52372 9.2978C1.26991 9.58209 1.23518 9.8901 1.25957 10.1451C1.27416 10.2999 1.38305 10.955 2.07124 11.0397C2.54663 11.0972 5.93794 10.8654 7.2453 10.8168C13.3999 10.5898 19.5464 10.199 25.692 9.72276C39.626 8.6485 53.5362 7.76625 67.484 6.9958C75.3149 6.56238 83.1459 6.23797 90.9698 6.00789C109.757 6.74136 128.479 8.21634 146.849 9.71508C139.522 10.0541 132.789 10.4155 127.209 10.6189C117.798 10.9614 108.402 11.4095 99.0019 12.0756C94.1722 12.4163 89.3476 12.7971 84.5238 13.2687C83.9893 13.3224 82.7742 13.3606 82.1849 13.4274C81.9348 13.4537 81.7528 13.5018 81.6708 13.5361C81.157 13.752 81.0807 14.2188 81.0682 14.4547C81.0612 14.5981 81.0825 15.3818 81.9351 15.5561C121.575 23.726 163.351 16.4541 203.139 24.4278C203.606 24.5215 204.055 24.1549 204.14 23.6083C204.224 23.0635 203.914 22.5432 203.446 22.4496C165.972 14.9398 126.734 20.9551 89.1746 14.8532C92.4786 14.5647 95.7832 14.3125 99.0904 14.0785C108.474 13.4138 117.852 12.967 127.247 12.6242C136.701 12.281 149.491 11.4666 162.865 11.0886C174.307 12.1243 185.74 13.2506 197.185 14.25C202.013 14.6706 206.844 15.0405 211.671 15.4665C213.655 15.6405 218.754 16.2879 219.501 16.1142C220.081 15.9782 220.232 15.5005 220.273 15.2598C220.316 14.9993 220.303 14.6737 220.049 14.3565C219.971 14.2564 219.733 14.0469 219.239 13.8671C205.879 9.02322 183.804 8.53332 163.102 9.09586C158.663 8.69237 154.224 8.3034 149.782 7.94163C139.614 7.11096 129.335 6.27562 118.992 5.56044C148.195 5.46096 177.382 6.44408 206.568 7.7942C218.822 8.36169 251.829 10.7447 264.809 12.4391C264.645 12.6257 264.545 12.8884 264.548 13.1774C264.555 13.73 264.947 14.1688 265.423 14.1554C268.112 14.0784 269.67 13.9326 270.29 13.7576C270.676 13.6493 270.89 13.4657 270.99 13.3447C271.234 13.0529 271.287 12.7344 271.248 12.43C271.223 12.2404 271.156 12.0315 270.993 11.8366C270.884 11.703 270.615 11.4963 270.151 11.3482C265.074 9.73471 221.243 6.46438 206.652 5.78847C168.096 4.00588 129.537 2.86287 90.9483 4.00131ZM208.815 13.2062C201.308 11.8217 192.482 11.1777 183.262 10.9708C187.95 11.4079 192.639 11.8377 197.33 12.2476C201.157 12.5829 204.986 12.8836 208.815 13.2062ZM55.3246 5.68934C45.4118 6.28792 35.5081 6.95577 25.594 7.72149C24.4492 7.8087 23.3061 7.89414 22.1614 7.97772C33.1367 6.69384 44.2105 5.98121 55.3246 5.68934Z" fill="#C0BDED"/>
</svg>
