<svg width="438" height="188" viewBox="0 0 438 188" fill="none" xmlns="http://www.w3.org/2000/svg">
<path fill-rule="evenodd" clip-rule="evenodd" d="M35.6913 38.4596L35.6922 38.4574L35.6936 38.4542L35.7154 38.4045C35.7367 38.3563 35.7715 38.2782 35.8198 38.1723C35.9165 37.9603 36.067 37.6372 36.2712 37.2191C36.6797 36.3823 37.3012 35.1686 38.1335 33.7059C39.8032 30.7712 42.2935 26.8832 45.5789 23.037C52.2212 15.2606 61.6013 8.21928 73.637 8.53444C85.7913 8.85272 94.9321 16.399 105.341 25.205L105.771 25.5691C115.651 33.9298 126.802 43.3672 142.002 43.7652C157.203 44.1633 168.833 35.3224 179.136 27.4902L179.585 27.1491C190.44 18.9 199.964 11.8424 212.118 12.1607C224.272 12.479 233.413 20.0252 243.822 28.8312L244.252 29.1954C254.131 37.556 265.283 46.9935 280.483 47.3915C294.372 47.7552 301.8 40.22 308.722 33.1984C309.698 32.2075 310.665 31.2268 311.639 30.28C315.684 26.3448 320.046 22.6546 325.993 19.9687C331.925 17.2897 339.683 15.5011 350.599 15.787C372.861 16.3699 393.212 22.0533 408.047 27.6311C415.452 30.4151 421.449 33.1602 425.582 35.2021C427.648 36.2226 429.246 37.0663 430.319 37.6499C430.855 37.9416 431.26 38.1682 431.526 38.3192C431.659 38.3947 431.758 38.4513 431.821 38.4876L431.888 38.5269L431.902 38.5348C433.805 39.6559 436.257 39.0216 437.378 37.118C438.5 35.2145 437.865 32.7625 435.962 31.6415L433.932 35.0881C435.962 31.6415 435.961 31.6409 435.96 31.6402L435.957 31.6384L435.948 31.6334L435.921 31.6173L435.825 31.5617C435.743 31.5144 435.625 31.4467 435.472 31.36C435.166 31.1866 434.72 30.9372 434.141 30.6222C432.983 29.9923 431.292 29.0999 429.125 28.0295C424.794 25.8897 418.552 23.0342 410.862 20.1429C395.508 14.3699 374.245 8.40342 350.808 7.78971C338.875 7.47721 329.891 9.43026 322.7 12.6778C315.525 15.9184 310.385 20.3395 306.061 24.5453C304.936 25.6396 303.877 26.7002 302.861 27.7173L302.86 27.7176C295.87 34.7182 290.932 39.6624 280.693 39.3942C268.538 39.076 259.398 31.5297 248.989 22.7237L248.559 22.3596C238.679 13.9989 227.528 4.56148 212.327 4.16345C197.127 3.76542 185.497 12.6062 175.194 20.4384L174.745 20.7796C163.889 29.0287 154.366 36.0863 142.212 35.768C130.058 35.4497 120.917 27.9035 110.508 19.0975L110.078 18.7333C100.198 10.3726 89.0466 0.935219 73.8464 0.537191C58.3066 0.130258 46.8232 9.26287 39.4959 17.841C35.7965 22.172 33.0255 26.5064 31.1801 29.7497C30.2548 31.3761 29.5553 32.7403 29.0823 33.7092C28.8456 34.194 28.6651 34.5807 28.541 34.8528C28.479 34.9889 28.431 35.0964 28.397 35.1733C28.3801 35.2117 28.3666 35.2425 28.3566 35.2654L28.3444 35.2938L28.3402 35.3034L28.3386 35.3071C28.338 35.3087 28.3374 35.31 31.8664 36.8202L28.3373 35.3101C27.4682 37.3411 28.4101 39.6921 30.4411 40.5612C32.4707 41.4297 34.8199 40.4897 35.6904 38.4616L35.6907 38.461L35.6913 38.4596ZM22.2 107.869L22.1991 107.871L22.1984 107.873L22.1982 107.873C21.3276 109.901 18.9785 110.841 16.9489 109.973C14.9179 109.104 13.976 106.753 14.8451 104.722L18.3742 106.232C14.8451 104.722 14.8457 104.72 14.8464 104.719L14.848 104.715L14.8521 104.705L14.8644 104.677C14.8744 104.654 14.8878 104.623 14.9048 104.585C14.9387 104.508 14.9867 104.4 15.0488 104.264C15.1729 103.992 15.3533 103.605 15.59 103.121C16.0631 102.152 16.7626 100.788 17.6879 99.1612C19.5333 95.9179 22.3043 91.5835 26.0037 87.2526C33.3309 78.6744 44.8144 69.5418 60.3542 69.9487C75.5544 70.3467 86.706 79.7841 96.5854 88.1448L97.0157 88.509C107.425 97.315 116.565 104.861 128.72 105.179C140.874 105.498 150.397 98.4402 161.252 90.1911L161.701 89.8499C172.005 82.0178 183.635 73.1769 198.835 73.575C214.035 73.973 225.187 83.4104 235.066 91.7711L235.497 92.1352C245.905 100.941 255.046 108.487 267.2 108.806C277.44 109.074 282.377 104.13 289.368 97.1291L289.368 97.1289L289.371 97.1261C290.386 96.1098 291.444 95.0502 292.568 93.9568C296.892 89.751 302.033 85.3299 309.208 82.0893C316.399 78.8418 325.383 76.8887 337.316 77.2012C360.753 77.8149 382.016 83.7814 397.37 89.5544C405.06 92.4457 411.302 95.3012 415.633 97.4411C417.8 98.5114 419.491 99.4038 420.649 100.034C421.228 100.349 421.674 100.598 421.98 100.772C422.064 100.819 422.137 100.861 422.2 100.897C422.251 100.926 422.296 100.952 422.333 100.973L422.428 101.029L422.456 101.045L422.464 101.05L422.467 101.052C422.468 101.052 422.469 101.053 420.44 104.5L422.469 101.053C424.373 102.174 425.007 104.626 423.886 106.53C422.765 108.433 420.313 109.067 418.41 107.946L418.396 107.938L418.329 107.899C418.294 107.879 418.248 107.852 418.191 107.82C418.145 107.794 418.093 107.764 418.034 107.731C417.768 107.58 417.363 107.353 416.826 107.061C415.754 106.478 414.156 105.634 412.09 104.614C407.957 102.572 401.959 99.8267 394.555 97.0426C379.72 91.4648 359.369 85.7814 337.107 85.1985C326.191 84.9126 318.433 86.7012 312.501 89.3802C306.554 92.0661 302.192 95.7563 298.146 99.6915C297.173 100.638 296.206 101.619 295.229 102.61C288.307 109.632 280.879 117.167 266.991 116.803C251.791 116.405 240.639 106.968 230.76 98.6069L230.33 98.2427C219.921 89.4367 210.78 81.8905 198.626 81.5722C186.471 81.2539 176.948 88.3115 166.093 96.5606L165.644 96.9017C155.341 104.734 143.71 113.575 128.51 113.177C113.31 112.779 102.158 103.341 92.279 94.9806L91.8487 94.6165C81.4398 85.8105 72.299 78.2642 60.1448 77.946C48.109 77.6308 38.729 84.6721 32.0867 92.4485C28.8013 96.2947 26.311 100.183 24.6412 103.117C23.809 104.58 23.1875 105.794 22.7789 106.631C22.5748 107.049 22.4243 107.372 22.3276 107.584C22.2793 107.69 22.2445 107.768 22.2232 107.816L22.2014 107.866L22.2 107.869ZM8.43792 178.669L8.43699 178.671L8.43637 178.672L8.4361 178.673C7.56554 180.701 5.2164 181.641 3.18682 180.772C1.15582 179.903 0.213925 177.552 1.08303 175.521L4.61209 177.032C1.08305 175.521 1.08364 175.52 1.08429 175.518L1.08588 175.515L1.09005 175.505L1.10233 175.477C1.11228 175.454 1.12574 175.423 1.14271 175.385C1.17666 175.308 1.22467 175.2 1.28673 175.064C1.41083 174.792 1.59127 174.405 1.82795 173.92C2.301 172.952 3.00051 171.587 3.92584 169.961C5.77118 166.718 8.5422 162.383 12.2416 158.052C19.5689 149.474 31.0523 140.342 46.5921 140.748C61.7923 141.146 72.944 150.584 82.8233 158.945L83.2536 159.309C93.6624 168.115 102.803 175.661 114.958 175.979C127.112 176.298 136.635 169.24 147.49 160.991L147.939 160.65C158.243 152.817 169.873 143.977 185.073 144.375C200.273 144.773 211.425 154.21 221.304 162.571L221.735 162.935C232.143 171.741 241.284 179.287 253.438 179.605C263.678 179.874 268.615 174.929 275.606 167.929C276.622 166.912 277.681 165.851 278.806 164.757C283.13 160.551 288.271 156.13 295.446 152.889C302.636 149.642 311.621 147.688 323.554 148.001C346.991 148.615 368.254 154.581 383.608 160.354C391.298 163.245 397.54 166.101 401.871 168.241C404.038 169.311 405.729 170.204 406.887 170.833C407.466 171.148 407.912 171.398 408.218 171.571C408.371 171.658 408.489 171.726 408.57 171.773L408.666 171.829L408.694 171.845L408.702 171.85L408.705 171.851C408.706 171.852 408.707 171.853 406.677 175.299L408.707 171.853C410.611 172.974 411.245 175.426 410.124 177.329C409.003 179.233 406.551 179.867 404.648 178.746L404.634 178.738L404.566 178.699C404.504 178.663 404.405 178.606 404.272 178.53C404.006 178.379 403.601 178.153 403.064 177.861C401.992 177.278 400.394 176.434 398.328 175.413C394.195 173.371 388.197 170.626 380.793 167.842C365.958 162.265 345.607 156.581 323.345 155.998C312.429 155.712 304.67 157.501 298.739 160.18C292.792 162.866 288.43 166.556 284.384 170.491C283.411 171.438 282.444 172.419 281.467 173.41C274.545 180.431 267.117 187.966 253.229 187.603C238.029 187.205 226.877 177.767 216.998 169.407L216.567 169.042C206.159 160.236 197.018 152.69 184.864 152.372C172.709 152.054 163.186 159.111 152.331 167.36L151.882 167.701C141.579 175.534 129.948 184.375 114.748 183.977C99.5479 183.578 88.3962 174.141 78.5169 165.78L78.0866 165.416C67.6778 156.61 58.537 149.064 46.3827 148.746C34.3469 148.431 24.9669 155.472 18.3246 163.248C15.0392 167.094 12.5489 170.982 10.8791 173.917C10.0469 175.38 9.42542 176.594 9.01685 177.43C8.81272 177.848 8.6622 178.172 8.56554 178.384C8.51722 178.489 8.4824 178.568 8.46111 178.616L8.43934 178.665L8.43792 178.669Z" fill="white"/>
</svg>
